<?xml version="1.0" encoding="iso-8859-1"?>
<!-- Generator: Adobe Illustrator 19.0.0, SVG Export Plug-In . SVG Version: 6.00 Build 0)  -->
<svg version="1.1" id="Layer_1" xmlns="http://www.w3.org/2000/svg" xmlns:xlink="http://www.w3.org/1999/xlink" x="0px" y="0px"
	 viewBox="0 0 512 512" style="enable-background:new 0 0 512 512;" xml:space="preserve">
<path style="fill:#D1D3D4;" d="M472.412,226.969c0-119.505-96.907-216.412-216.412-216.412S39.588,107.464,39.588,226.969
	l126.68,190.021h179.464L472.412,226.969z"/>
<path style="fill:#F1F2F2;" d="M345.732,416.99H166.268c-10.557,5.278-15.835,19.103-15.835,31.67v10.557
	c0,23.33,18.896,42.227,42.227,42.227h126.68c23.33,0,42.227-18.897,42.227-42.227V448.66
	C361.567,434.618,356.289,424.701,345.732,416.99z"/>
<g>
	<path style="fill:#231F20;" d="M482.969,226.969C482.969,101.817,381.152,0,256,0C130.849,0,29.031,101.817,29.031,226.969
		c0,2.085,0.617,4.121,1.774,5.856l121.241,181.861c-8.816,9.442-12.169,23.237-12.169,33.974v10.557
		c0,29.105,23.679,52.783,52.784,52.783h126.68c29.105,0,52.784-23.679,52.784-52.783V448.66c0-13.518-4.105-24.554-12.5-33.477
		l121.572-182.358C482.353,231.09,482.969,229.054,482.969,226.969z M336.949,411.134c-3.137,4.704-2.009,11.045,2.557,14.38
		c8.064,5.891,11.505,12.813,11.505,23.146v10.557c0,17.463-14.207,31.67-31.67,31.67H192.66c-17.463,0-31.67-14.207-31.67-31.67
		V448.66c0-8.95,3.386-17.375,8.262-21.113h139.532v-21.113h-35.221l81.492-153.398l-18.645-9.905l-69.853,131.487V153.072h-21.113
		v226.493l-80.731-131.72l-18.001,11.033l90.438,147.555h-65.231L50.168,223.808C51.86,111.747,143.544,21.113,256,21.113
		c112.455,0,204.14,90.633,205.832,202.695L336.949,411.134z"/>
	<path style="fill:#231F20;" d="M97.649,190.021h21.113c0-52.389,42.622-95.01,95.01-95.01V73.897
		C149.743,73.897,97.649,125.99,97.649,190.021z"/>
	<rect x="97.649" y="205.856" style="fill:#231F20;" width="21.113" height="26.392"/>
</g>
<g>
</g>
<g>
</g>
<g>
</g>
<g>
</g>
<g>
</g>
<g>
</g>
<g>
</g>
<g>
</g>
<g>
</g>
<g>
</g>
<g>
</g>
<g>
</g>
<g>
</g>
<g>
</g>
<g>
</g>
</svg>
