<?xml version="1.0" standalone="no"?>
<!DOCTYPE svg PUBLIC "-//W3C//DTD SVG 20010904//EN"
 "http://www.w3.org/TR/2001/REC-SVG-20010904/DTD/svg10.dtd">
<svg version="1.0" xmlns="http://www.w3.org/2000/svg"
 width="700.000000pt" height="700.000000pt" viewBox="0 0 700.000000 700.000000"
 preserveAspectRatio="xMidYMid meet">
<metadata>
Created by potrace 1.11, written by Peter Selinger 2001-2013
</metadata>
<g transform="translate(0.000000,700.000000) scale(0.100000,-0.100000)"
fill="#000000" stroke="none">
<path d="M5338 6405 c-2 -1 -50 -5 -108 -9 -114 -7 -133 -9 -260 -32 -278 -50
-521 -153 -1125 -476 -137 -74 -299 -160 -360 -193 -60 -32 -155 -82 -210
-112 -303 -161 -852 -429 -1045 -508 -36 -15 -81 -34 -100 -42 -64 -28 -74
-32 -200 -77 -107 -39 -296 -94 -380 -110 -226 -44 -695 -172 -795 -216 -11
-5 -49 -21 -85 -36 -163 -66 -324 -163 -422 -253 -195 -178 -285 -432 -228
-641 31 -116 132 -245 259 -330 131 -88 373 -186 592 -240 91 -22 100 -24 189
-40 30 -6 64 -12 75 -14 11 -2 43 -7 70 -11 l50 -8 -60 -13 c-33 -7 -96 -20
-140 -28 -44 -8 -89 -17 -100 -19 -11 -3 -38 -8 -60 -12 -56 -11 -48 -9 -180
-45 -376 -101 -586 -218 -671 -373 -23 -42 -29 -66 -31 -125 -2 -91 15 -133
119 -293 103 -158 221 -301 373 -455 150 -150 217 -208 370 -322 61 -45 115
-85 120 -90 42 -34 258 -160 390 -228 178 -90 343 -159 545 -228 181 -61 496
-138 655 -161 22 -3 65 -10 95 -15 30 -5 82 -12 115 -15 33 -3 74 -8 90 -10
36 -5 145 -14 270 -20 171 -10 605 -4 730 9 28 3 88 8 135 12 47 3 93 8 102 9
9 2 41 6 70 9 29 4 62 8 73 10 11 2 45 7 75 11 30 4 64 9 75 11 11 2 56 11
100 19 484 92 961 290 1340 555 93 65 263 196 325 251 19 17 64 56 100 87 97
84 597 589 641 647 54 73 78 140 74 209 -10 171 -170 313 -479 427 -144 52
-420 124 -591 152 -16 3 -82 14 -145 26 -63 11 -133 23 -155 26 -22 3 -53 7
-70 10 -38 6 -83 12 -160 21 -33 4 -69 8 -80 10 -11 1 -28 3 -37 3 -43 2 -11
20 80 46 281 79 595 218 822 364 199 127 395 307 511 468 104 144 212 379 235
511 3 15 9 43 14 62 11 45 21 155 21 250 2 233 -60 511 -161 728 -47 99 -148
256 -216 332 -269 304 -665 491 -1094 516 -52 3 -107 7 -122 9 -15 2 -28 2
-30 0z m250 -359 c268 -44 494 -151 660 -312 l67 -65 -70 49 c-128 90 -315
171 -455 197 -14 3 -34 7 -45 9 -107 21 -324 28 -445 15 -225 -26 -414 -80
-618 -176 -53 -26 -99 -47 -102 -48 -3 0 -14 -6 -25 -12 -11 -6 -78 -41 -150
-78 -113 -59 -303 -159 -705 -373 -58 -31 -145 -78 -195 -104 -333 -178 -853
-429 -1062 -513 -48 -20 -97 -40 -108 -45 -38 -18 -161 -63 -295 -107 -115
-38 -177 -54 -295 -79 -63 -13 -409 -97 -455 -110 -374 -110 -606 -219 -720
-338 -61 -63 -78 -92 -101 -169 -17 -55 -19 -73 -10 -99 6 -17 10 -33 8 -35
-2 -1 -26 19 -54 45 -80 76 -91 149 -38 257 98 201 376 344 950 490 77 19 151
37 165 40 498 92 1058 326 2060 860 151 81 329 175 395 210 66 35 158 84 205
110 287 155 555 278 700 321 72 21 220 52 285 59 33 4 62 9 64 10 5 6 352 -3
389 -9z m-223 -670 c135 -15 288 -89 387 -187 36 -37 73 -80 82 -97 l16 -31
-47 23 c-95 47 -167 66 -276 70 -124 6 -277 -41 -577 -175 -109 -49 -606 -298
-830 -417 -135 -71 -312 -164 -393 -206 -82 -43 -194 -102 -250 -132 -180 -97
-499 -251 -602 -292 -114 -45 -200 -72 -435 -137 -359 -99 -402 -112 -550
-162 -228 -77 -350 -149 -410 -241 -15 -22 -16 -22 -62 -8 -27 8 -48 12 -48 9
0 -2 -27 10 -59 27 -43 23 -64 42 -76 66 -25 53 0 119 74 193 107 109 232 155
936 351 201 56 323 95 425 137 96 39 404 190 585 286 66 35 183 97 260 137 77
40 237 125 355 187 602 319 1109 555 1241 578 18 3 36 8 41 11 10 7 138 21
153 18 6 -2 33 -5 60 -8z m-1710 -2200 c141 -14 162 -18 263 -42 239 -57 441
-154 617 -293 75 -60 117 -95 148 -124 50 -49 217 -116 487 -197 425 -127 532
-180 599 -300 l22 -39 -88 30 c-48 17 -155 51 -238 75 -367 109 -455 150 -585
270 -188 174 -531 337 -779 370 -25 3 -49 8 -52 10 -17 10 -194 19 -364 18
-165 -1 -299 -13 -434 -39 -10 -2 -34 -6 -52 -9 -102 -16 -434 -117 -534 -161
-27 -13 -79 -35 -115 -50 -175 -73 -401 -211 -495 -303 -88 -85 -129 -208
-102 -305 l8 -28 -48 6 c-43 5 -55 13 -116 76 -92 94 -127 169 -123 255 9 160
132 283 447 449 336 177 768 305 1114 331 50 4 91 7 92 8 6 5 265 -2 328 -8z
m-2250 -504 c-19 -37 -43 -101 -54 -142 -19 -74 -19 -75 -57 -83 -137 -29
-344 -84 -429 -114 -177 -62 -156 -61 -280 -14 -106 40 -215 97 -215 113 0 13
99 66 185 99 87 34 222 75 355 108 87 21 472 96 517 100 7 1 -3 -28 -22 -67z
m4305 44 c14 -3 41 -8 60 -11 51 -7 91 -14 120 -21 14 -3 36 -8 50 -10 49 -9
247 -56 330 -80 166 -47 357 -131 367 -160 4 -13 -90 -67 -165 -94 l-58 -21
-104 34 c-58 18 -140 42 -183 52 -72 18 -81 23 -114 65 -73 91 -177 169 -293
220 -58 25 -90 46 -55 37 11 -4 31 -8 45 -11z m-4705 -861 c66 -13 134 -26
150 -29 17 -3 46 -8 65 -11 75 -13 94 -16 185 -29 22 -4 58 -9 80 -11 71 -9
120 -16 135 -20 8 -2 53 -7 100 -10 47 -4 87 -8 90 -10 3 -2 43 -6 90 -9 47
-4 101 -9 120 -11 19 -2 73 -7 120 -10 47 -4 105 -8 130 -10 50 -4 249 -17
320 -20 553 -27 1535 -27 1880 0 25 2 83 6 130 9 47 4 110 8 140 11 30 3 89 7
130 10 41 3 91 8 110 10 19 2 64 6 100 10 36 3 76 8 90 10 14 2 54 7 90 10 36
4 77 8 91 11 15 2 47 6 70 9 68 8 224 30 294 40 22 4 112 20 199 36 88 16 161
27 163 26 2 -2 -34 -35 -78 -73 -45 -38 -87 -74 -93 -80 -41 -39 -230 -174
-244 -175 -9 0 -26 -2 -37 -4 -11 -2 -67 -8 -125 -15 -58 -6 -115 -13 -128
-15 -12 -2 -57 -7 -100 -10 -42 -4 -93 -8 -112 -10 -19 -2 -78 -7 -130 -10
-52 -4 -103 -9 -113 -11 -9 -1 -72 -6 -140 -9 -67 -4 -147 -9 -177 -10 -395
-26 -1247 -26 -1710 0 -150 8 -289 16 -345 20 -124 9 -221 16 -260 20 -22 3
-71 7 -110 10 -38 3 -86 7 -105 10 -19 2 -60 7 -90 10 -81 9 -237 28 -330 41
-39 6 -311 51 -350 59 -43 8 -124 25 -140 29 -8 3 -37 8 -63 12 -38 5 -63 18
-113 60 -92 75 -204 176 -204 184 0 4 24 1 53 -7 28 -8 106 -25 172 -38z"/>
</g>
</svg>
